<svg width="154" height="47" viewBox="0 0 154 47" fill="none" xmlns="http://www.w3.org/2000/svg">
<g filter="url(#filter0_d_291_149132)">
<path d="M3.67163 3.11594H0V39.8841H3.67163V43H150.328V39.8841H154V3.11594H150.328V0H3.67163V3.11594Z" fill="#8E73F4"/>
<path d="M5.17188 1.5V4.61621H1.5V38.3838H5.17188V41.5H148.828V38.3838H152.5V4.61621H148.828V1.5H5.17188Z" stroke="#F6ECF6" stroke-width="3"/>
</g>
<path d="M44.6719 20.5V10H55.1719V20.5H52.1719V11.5H47.6719V20.5H44.6719ZM58.1719 20.5V19H56.6719V11.5H58.1719V10H65.6719V11.5H67.1719V19H65.6719V20.5H58.1719ZM59.6719 19H64.1719V11.5H59.6719V19ZM68.6719 20.5V17.5H70.1719V16H71.6719V10H79.1719V20.5H76.1719V11.5H73.1719V19H71.6719V20.5H68.6719ZM82.1719 20.5V19H80.6719V17.5H83.6719V19H88.1719V16H82.1719V14.5H80.6719V10H83.6719V14.5H88.1719V10H91.1719V19H89.6719V20.5H82.1719ZM100.172 20.5V16H94.1719V14.5H92.6719V10H95.6719V14.5H100.172V10H103.172V20.5H100.172ZM104.672 20.5V10H107.672V16H109.172V14.5H110.672V13H112.172V10H115.172V20.5H112.172V16H110.672V17.5H109.172V19H107.672V20.5H104.672ZM121.172 20.5V11.5H118.172V10H127.172V11.5H124.172V20.5H121.172ZM128.672 20.5V10H131.672V13H137.672V14.5H139.172V19H137.672V20.5H128.672ZM131.672 19H136.172V14.5H131.672V19ZM44.6719 34.5V24H55.1719V34.5H52.1719V25.5H47.6719V34.5H44.6719ZM58.1719 34.5V33H56.6719V25.5H58.1719V24H65.6719V25.5H67.1719V33H65.6719V34.5H58.1719ZM59.6719 33H64.1719V25.5H59.6719V33ZM68.6719 36V33H70.1719V30H71.6719V24H79.1719V33H80.6719V36H77.6719V34.5H71.6719V36H68.6719ZM73.1719 33H76.1719V25.5H73.1719V33ZM80.6719 34.5V24H89.6719V25.5H83.6719V28.5H89.6719V30H91.1719V33H89.6719V34.5H80.6719ZM83.6719 33H88.1719V30H83.6719V33ZM94.1719 34.5V33H92.6719V25.5H94.1719V24H101.672V25.5H103.172V33H101.672V34.5H94.1719ZM95.6719 33H100.172V25.5H95.6719V33ZM104.672 34.5V24H113.672V25.5H115.172V30H113.672V31.5H107.672V34.5H104.672ZM107.672 30H112.172V25.5H107.672V30ZM121.172 27H122.672V28.5H124.172V30H125.672V33H127.172V34.5H124.172V33H122.672V30H119.672V34.5H116.672V24H119.672V28.5H121.172V27ZM127.172 24V25.5H125.672V27H122.672V25.5H124.172V24H127.172ZM130.172 34.5V33H128.672V31.5H131.672V33H136.172V30H130.172V28.5H128.672V24H131.672V28.5H136.172V24H139.172V33H137.672V34.5H130.172Z" fill="white"/>
<path d="M26.9707 22.4328C27.1894 22.4363 27.4119 22.4426 27.63 22.4374C27.6306 22.6118 27.6224 22.9538 27.6484 23.1125C27.428 23.1122 27.1894 23.1166 26.9704 23.1091C26.9707 22.8892 26.9754 22.6513 26.9707 22.4328Z" fill="white"/>
<path d="M29.6682 19.6819C29.6802 19.9072 29.6799 20.1473 29.6834 20.374L30.3722 20.3709C30.3798 20.8203 30.3813 21.2698 30.3766 21.7192L29.6773 21.7276C29.6802 21.9036 29.6952 22.2558 29.6665 22.4139C29.0003 22.4213 28.3252 22.415 27.6581 22.414C27.6578 22.1687 27.6604 21.9792 27.6794 21.7327L26.9757 21.7312L26.9716 20.3662L27.666 20.3707C27.6654 20.1384 27.6669 19.906 27.6698 19.6736L29.6682 19.6819Z" fill="white"/>
<path d="M24.8842 21.7508C24.8924 21.9631 24.8871 22.1939 24.8866 22.4077C24.6735 22.4185 24.4378 22.4156 24.2227 22.4174L24.2256 21.7427L24.8842 21.7508Z" fill="white"/>
<path d="M26.9429 21.7438C26.9356 21.956 26.9444 22.1607 26.9347 22.3818L26.8882 22.4143L26.2878 22.4146C26.2855 22.2735 26.2656 21.8583 26.3153 21.75L26.9429 21.7438Z" fill="white"/>
<path fill-rule="evenodd" clip-rule="evenodd" d="M17.3673 10.0112C17.9115 9.98681 18.6453 10.0098 19.203 10.0099L33.8076 10.0082L33.8138 10.6899C34.0322 10.6962 34.2698 10.6913 34.4897 10.6911C34.5195 11.7419 34.475 13.0441 34.4756 14.1207L34.4903 20.3369C33.6276 20.366 32.6227 20.3431 31.7468 20.3443C31.7392 20.8097 31.7398 21.2752 31.7483 21.7406C32.6458 21.7735 33.5776 21.738 34.4835 21.7604C34.5081 22.1979 34.4941 22.7523 34.4929 23.1959L34.4873 25.6208L34.4941 32.2911C34.2616 32.3061 34.0611 32.2493 33.8533 32.3256C33.7807 32.4072 33.8053 32.3936 33.8027 32.5376L33.8038 32.9853C32.9315 33.0141 31.9237 32.9917 31.0437 32.9914L20.2076 32.9876C19.2823 32.9862 18.29 33.0085 17.3708 32.9797C17.3585 32.7694 17.3673 32.4973 17.3682 32.2823L16.6779 32.2829C16.6542 31.9047 16.675 31.3508 16.6762 30.9614L16.6788 28.5574C16.6773 26.3022 16.6481 23.9966 16.6689 21.7478C17.5669 21.7329 18.513 21.7477 19.4152 21.7447C19.4231 21.2778 19.4205 20.8107 19.4064 20.344L16.6721 20.348C16.644 19.1576 16.6823 17.8802 16.6823 16.6799L16.6759 10.6995C16.9045 10.6885 17.1311 10.6911 17.3597 10.6917L17.3673 10.0112ZM30.4109 18.9508C29.5552 18.9835 28.5032 18.9596 27.6285 18.9627C27.6265 19.1922 27.6282 19.4217 27.6341 19.6511L26.9423 19.6564L26.9356 20.3471C26.7234 20.3505 26.5111 20.3487 26.2989 20.3416C26.2866 20.122 26.2875 19.8805 26.284 19.6589L24.89 19.6585C24.8933 19.8851 24.8842 20.1057 24.8763 20.3319C24.6682 20.3435 24.4369 20.3438 24.2267 20.3488C24.2329 20.125 24.2264 19.8817 24.2247 19.6564L23.5473 19.6514L23.5394 18.9605L20.7568 18.9618C20.7581 19.1496 20.7585 19.3025 20.7467 19.4859L20.7442 19.523L20.7369 19.6137C20.6157 19.6897 20.2307 19.6578 20.0718 19.652C20.116 20.5083 20.0712 21.5677 20.0741 22.4448C20.2954 22.4449 20.5296 22.4414 20.7498 22.4457C20.7541 22.6713 20.7556 22.8969 20.7541 23.1226C21.6144 23.1224 22.6753 23.1517 23.5189 23.1177C23.5205 23.1067 23.522 23.095 23.5234 23.0827C23.5261 23.0582 23.5284 23.0315 23.5301 23.0032C23.5337 22.9466 23.5354 22.8836 23.5357 22.8193C23.5359 22.7872 23.5357 22.7547 23.5352 22.7226C23.5349 22.7065 23.5346 22.6905 23.5342 22.6746C23.5327 22.6112 23.53 22.5502 23.5267 22.4968C23.525 22.4701 23.5232 22.4453 23.5213 22.423C23.5007 22.4223 23.4801 22.4216 23.4595 22.421C23.4583 22.421 23.457 22.4209 23.4558 22.4209C23.4148 22.4197 23.3738 22.4187 23.3328 22.4178C23.2675 22.4163 23.2023 22.4153 23.1369 22.4145C22.583 22.408 22.0261 22.4225 21.474 22.4126L21.474 22.4125C21.4734 22.2027 21.4648 21.9362 21.4804 21.7312C21.3721 21.7298 21.2572 21.7297 21.1426 21.7288C21.113 21.7285 21.0835 21.7283 21.0541 21.7279C20.9687 21.7268 20.8845 21.7251 20.8042 21.7218L20.8042 21.7218C20.7986 21.2727 20.7969 20.8235 20.7986 20.3744L21.4763 20.3667C21.4739 20.1451 21.4655 19.8988 21.4827 19.6798L23.5101 19.6723L23.5102 19.6724L23.5116 20.3657C23.7332 20.368 23.9615 20.3738 24.1822 20.364L24.1823 20.364C24.1922 20.819 24.194 21.2741 24.1867 21.7291L23.5073 21.7353C23.5105 21.9645 23.5151 22.1938 23.5213 22.423C23.5788 22.4307 23.646 22.4348 23.717 22.4365C23.7455 22.4372 23.7745 22.4376 23.8038 22.4376C23.8185 22.4377 23.8332 22.4376 23.8479 22.4375C23.8774 22.4373 23.9069 22.4369 23.9361 22.4364C23.9654 22.4358 23.9943 22.4351 24.0226 22.4344C24.0792 22.4329 24.1331 22.4312 24.1814 22.4301L24.1845 22.5193C24.1906 22.7006 24.1939 22.8605 24.1884 23.0444C24.1878 23.067 24.187 23.09 24.186 23.1134L23.5189 23.1177C23.5107 23.3441 23.5125 23.5664 23.5133 23.7927L22.831 23.7966C22.8351 24.2669 22.8345 24.7372 22.829 25.2075C23.0467 25.2063 23.3228 25.2128 23.5359 25.1992L23.5365 24.5106L24.2229 24.5018C24.225 24.2802 24.2311 24.044 24.2288 23.8237C24.4518 23.8211 24.6884 23.8221 24.9103 23.8153C24.9114 23.3771 24.9237 22.8707 24.9105 22.4381C25.3526 22.4392 25.8113 22.4459 26.2518 22.4405L26.253 23.817L26.9438 23.8253L26.945 24.5063L27.6262 24.5138L27.632 25.2077C27.971 25.2079 28.3574 25.2167 28.6923 25.2025C28.6958 24.9634 28.6999 24.7321 28.6937 24.4928C28.5845 24.4864 28.4446 24.4821 28.3384 24.4715L28.3378 23.796L27.6569 23.7929C27.6566 23.6406 27.6657 23.2456 27.6484 23.1125C28.5679 23.1222 29.487 23.1251 30.4065 23.1212L30.412 22.4505C30.6219 22.4403 30.8851 22.4445 31.099 22.4427C31.1058 21.5126 31.1058 20.5824 31.099 19.6523L30.4284 19.6429L30.4109 18.9508ZM20.1075 19.5567C20.0994 19.5756 20.0929 19.5894 20.0871 19.6036L20.0965 19.5819C20.0998 19.5743 20.1035 19.5661 20.1075 19.5567ZM20.3708 19.5194C20.3333 19.5206 20.2967 19.5227 20.2624 19.5259C20.2899 19.5233 20.3188 19.5215 20.3484 19.5203C20.3558 19.5199 20.3633 19.5196 20.3708 19.5194Z" fill="white"/>
<path d="M14.5245 32.0291H13.5V10.913H14.5245V32.0291Z" fill="white"/>
<path d="M16.1053 32.0291H15.0807V10.913H16.1053V32.0291Z" fill="white"/>
<defs>
<filter id="filter0_d_291_149132" x="0" y="0" width="154" height="47" filterUnits="userSpaceOnUse" color-interpolation-filters="sRGB">
<feFlood flood-opacity="0" result="BackgroundImageFix"/>
<feColorMatrix in="SourceAlpha" type="matrix" values="0 0 0 0 0 0 0 0 0 0 0 0 0 0 0 0 0 0 127 0" result="hardAlpha"/>
<feOffset dy="4"/>
<feComposite in2="hardAlpha" operator="out"/>
<feColorMatrix type="matrix" values="0 0 0 0 0.384314 0 0 0 0 0.341176 0 0 0 0 0.933333 0 0 0 1 0"/>
<feBlend mode="normal" in2="BackgroundImageFix" result="effect1_dropShadow_291_149132"/>
<feBlend mode="normal" in="SourceGraphic" in2="effect1_dropShadow_291_149132" result="shape"/>
</filter>
</defs>
</svg>
