<svg width="61" height="64" viewBox="0 0 61 64" fill="none" xmlns="http://www.w3.org/2000/svg">
<path d="M5.46268 4.61459H0V59.0667H5.46268V63.6813H55.5373V59.0667H61V4.61459H55.5373V0H5.46268V4.61459Z" fill="#F74535"/>
<rect width="4.47938" height="4.47938" transform="matrix(-1 0 0 1 33.6758 28.3983)" fill="white"/>
<rect width="4.47938" height="4.47938" transform="matrix(-1 0 0 1 42.6348 19.4395)" fill="white"/>
<rect width="4.47938" height="4.47938" transform="matrix(-1 0 0 1 29.1973 32.8777)" fill="white"/>
<rect width="4.47938" height="4.47938" transform="matrix(-1 0 0 1 38.1562 23.919)" fill="white"/>
<rect width="4.47938" height="4.47938" transform="matrix(-1 0 0 1 24.7188 37.3569)" fill="white"/>
<rect width="4.47938" height="4.47938" transform="matrix(-1 0 0 1 31.4375 30.6379)" fill="white"/>
<rect width="4.47938" height="4.47938" transform="matrix(-1 0 0 1 40.3965 21.6793)" fill="white"/>
<rect width="4.47938" height="4.47938" transform="matrix(-1 0 0 1 26.957 35.1172)" fill="white"/>
<rect width="4.47938" height="4.47938" transform="matrix(-1 0 0 1 35.916 26.1588)" fill="white"/>
<rect width="4.47938" height="4.47938" transform="matrix(-1 0 0 1 22.4785 39.5967)" fill="white"/>
<rect x="26.959" y="28.3983" width="4.47938" height="4.47938" fill="white"/>
<rect x="18" y="19.4395" width="4.47938" height="4.47938" fill="white"/>
<rect x="31.4375" y="32.8777" width="4.47938" height="4.47938" fill="white"/>
<rect x="22.4785" y="23.919" width="4.47938" height="4.47938" fill="white"/>
<rect x="35.916" y="37.3569" width="4.47938" height="4.47938" fill="white"/>
<rect x="29.1973" y="30.6379" width="4.47938" height="4.47938" fill="white"/>
<rect x="20.2383" y="21.6793" width="4.47938" height="4.47938" fill="white"/>
<rect x="33.6777" y="35.1172" width="4.47938" height="4.47938" fill="white"/>
<rect x="24.7188" y="26.1588" width="4.47938" height="4.47938" fill="white"/>
<rect x="38.1562" y="39.5967" width="4.47938" height="4.47938" fill="white"/>
</svg>
