<svg width="61" height="64" viewBox="0 0 61 64" fill="none" xmlns="http://www.w3.org/2000/svg">
<path d="M5.46268 4.61459H0V59.0667H5.46268V63.6813H55.5373V59.0667H61V4.61459H55.5373V0H5.46268V4.61459Z" fill="#8E73F4"/>
<rect x="11.5293" y="28.3984" width="4.47938" height="4.47938" fill="white"/>
<rect width="4.47938" height="4.47938" transform="matrix(-1 0 0 1 40.6445 28.3983)" fill="white"/>
<rect width="4.47938" height="4.47938" transform="matrix(-1 0 0 1 49.6035 19.4396)" fill="white"/>
<rect x="16.0098" y="32.8778" width="4.47938" height="4.47938" fill="white"/>
<rect width="4.47938" height="4.47938" transform="matrix(-1 0 0 1 36.166 32.8778)" fill="white"/>
<rect width="4.47938" height="4.47938" transform="matrix(-1 0 0 1 45.125 23.9191)" fill="white"/>
<rect x="20.4883" y="37.357" width="4.47938" height="4.47938" fill="white"/>
<rect width="4.47938" height="4.47938" transform="matrix(-1 0 0 1 31.6875 37.357)" fill="white"/>
<rect x="13.7695" y="30.6381" width="4.47938" height="4.47938" fill="white"/>
<rect width="4.47938" height="4.47938" transform="matrix(-1 0 0 1 38.4062 30.638)" fill="white"/>
<rect width="4.47938" height="4.47938" transform="matrix(-1 0 0 1 47.3652 21.6794)" fill="white"/>
<rect x="18.25" y="35.1173" width="4.47938" height="4.47938" fill="white"/>
<rect width="4.47938" height="4.47938" transform="matrix(-1 0 0 1 33.9258 35.1173)" fill="white"/>
<rect width="4.47938" height="4.47938" transform="matrix(-1 0 0 1 42.8848 26.1588)" fill="white"/>
<rect x="22.7285" y="39.5968" width="4.47938" height="4.47938" fill="white"/>
<rect width="4.47938" height="4.47938" transform="matrix(-1 0 0 1 29.4473 39.5968)" fill="white"/>
</svg>
