<svg width="342" height="47" viewBox="0 0 342 47" fill="none" xmlns="http://www.w3.org/2000/svg">
<g filter="url(#filter0_d_291_103802)">
<path d="M3.67163 3.11594H0V39.8841H3.67163V43H337.5V39.8841H341.172V3.11594H337.5V0H3.67163V3.11594Z" fill="#8E73F4"/>
<path d="M5.17188 1.5V4.61621H1.5V38.3838H5.17188V41.5H336V38.3838H339.672V4.61621H336V1.5H5.17188Z" stroke="#F6ECF6" stroke-width="3"/>
</g>
<path d="M69.1719 28.25V16H81.4219V28.25H77.9219V17.75H72.6719V28.25H69.1719ZM84.9219 28.25V26.5H83.1719V17.75H84.9219V16H93.6719V17.75H95.4219V26.5H93.6719V28.25H84.9219ZM86.6719 26.5H91.9219V17.75H86.6719V26.5ZM97.1719 28.25V24.75H98.9219V23H100.672V16H109.422V28.25H105.922V17.75H102.422V26.5H100.672V28.25H97.1719ZM112.922 28.25V26.5H111.172V24.75H114.672V26.5H119.922V23H112.922V21.25H111.172V16H114.672V21.25H119.922V16H123.422V26.5H121.672V28.25H112.922ZM133.922 28.25V23H126.922V21.25H125.172V16H128.672V21.25H133.922V16H137.422V28.25H133.922ZM139.172 28.25V16H142.672V23H144.422V21.25H146.172V19.5H147.922V16H151.422V28.25H147.922V23H146.172V24.75H144.422V26.5H142.672V28.25H139.172ZM158.422 28.25V17.75H154.922V16H165.422V17.75H161.922V28.25H158.422ZM167.172 28.25V16H170.672V19.5H177.672V21.25H179.422V26.5H177.672V28.25H167.172ZM170.672 26.5H175.922V21.25H170.672V26.5ZM195.172 28.25V16H207.422V28.25H203.922V17.75H198.672V28.25H195.172ZM210.922 28.25V26.5H209.172V17.75H210.922V16H219.672V17.75H221.422V26.5H219.672V28.25H210.922ZM212.672 26.5H217.922V17.75H212.672V26.5ZM223.172 30V26.5H224.922V23H226.672V16H235.422V26.5H237.172V30H233.672V28.25H226.672V30H223.172ZM228.422 26.5H231.922V17.75H228.422V26.5ZM237.172 28.25V16H247.672V17.75H240.672V21.25H247.672V23H249.422V26.5H247.672V28.25H237.172ZM240.672 26.5H245.922V23H240.672V26.5ZM252.922 28.25V26.5H251.172V17.75H252.922V16H261.672V17.75H263.422V26.5H261.672V28.25H252.922ZM254.672 26.5H259.922V17.75H254.672V26.5ZM265.172 28.25V16H275.672V17.75H277.422V23H275.672V24.75H268.672V28.25H265.172ZM268.672 23H273.922V17.75H268.672V23ZM284.422 19.5H286.172V21.25H287.922V23H289.672V26.5H291.422V28.25H287.922V26.5H286.172V23H282.672V28.25H279.172V16H282.672V21.25H284.422V19.5ZM291.422 16V17.75H289.672V19.5H286.172V17.75H287.922V16H291.422ZM294.922 28.25V26.5H293.172V24.75H296.672V26.5H301.922V23H294.922V21.25H293.172V16H296.672V21.25H301.922V16H305.422V26.5H303.672V28.25H294.922Z" fill="white"/>
<path d="M51.4707 22.4328C51.6894 22.4363 51.9119 22.4426 52.13 22.4374C52.1306 22.6118 52.1224 22.9538 52.1484 23.1125C51.928 23.1122 51.6894 23.1166 51.4704 23.1091C51.4707 22.8892 51.4754 22.6513 51.4707 22.4328Z" fill="white"/>
<path d="M54.1682 19.6819C54.1802 19.9072 54.1799 20.1473 54.1834 20.374L54.8722 20.3709C54.8798 20.8203 54.8813 21.2698 54.8766 21.7192L54.1773 21.7276C54.1802 21.9036 54.1952 22.2558 54.1665 22.4139C53.5003 22.4213 52.8252 22.415 52.1581 22.414C52.1578 22.1687 52.1604 21.9792 52.1794 21.7327L51.4757 21.7312L51.4716 20.3662L52.166 20.3707C52.1654 20.1384 52.1669 19.906 52.1698 19.6736L54.1682 19.6819Z" fill="white"/>
<path d="M49.3842 21.7508C49.3924 21.9631 49.3871 22.1939 49.3866 22.4077C49.1735 22.4185 48.9378 22.4156 48.7227 22.4174L48.7256 21.7427L49.3842 21.7508Z" fill="white"/>
<path d="M51.4429 21.7438C51.4356 21.956 51.4444 22.1607 51.4347 22.3818L51.3882 22.4143L50.7878 22.4146C50.7855 22.2735 50.7656 21.8583 50.8153 21.75L51.4429 21.7438Z" fill="white"/>
<path fill-rule="evenodd" clip-rule="evenodd" d="M41.8673 10.0112C42.4115 9.98681 43.1453 10.0098 43.703 10.0099L58.3076 10.0082L58.3138 10.6899C58.5322 10.6962 58.7698 10.6913 58.9897 10.6911C59.0195 11.7419 58.975 13.0441 58.9756 14.1207L58.9903 20.3369C58.1276 20.366 57.1227 20.3431 56.2468 20.3443C56.2392 20.8097 56.2398 21.2752 56.2483 21.7406C57.1458 21.7735 58.0776 21.738 58.9835 21.7604C59.0081 22.1979 58.9941 22.7523 58.9929 23.1959L58.9873 25.6208L58.9941 32.2911C58.7616 32.3061 58.5611 32.2493 58.3533 32.3256C58.2807 32.4072 58.3053 32.3936 58.3027 32.5376L58.3038 32.9853C57.4315 33.0141 56.4237 32.9917 55.5437 32.9914L44.7076 32.9876C43.7823 32.9862 42.79 33.0085 41.8708 32.9797C41.8585 32.7694 41.8673 32.4973 41.8682 32.2823L41.1779 32.2829C41.1542 31.9047 41.175 31.3508 41.1762 30.9614L41.1788 28.5574C41.1773 26.3022 41.1481 23.9966 41.1689 21.7478C42.0669 21.7329 43.013 21.7477 43.9152 21.7447C43.9231 21.2778 43.9205 20.8107 43.9064 20.344L41.1721 20.348C41.144 19.1576 41.1823 17.8802 41.1823 16.6799L41.1759 10.6995C41.4045 10.6885 41.6311 10.6911 41.8597 10.6917L41.8673 10.0112ZM54.9109 18.9508C54.0552 18.9835 53.0032 18.9596 52.1285 18.9627C52.1265 19.1922 52.1282 19.4217 52.1341 19.6511L51.4423 19.6564L51.4356 20.3471C51.2234 20.3505 51.0111 20.3487 50.7989 20.3416C50.7866 20.122 50.7875 19.8805 50.784 19.6589L49.39 19.6585C49.3933 19.8851 49.3842 20.1057 49.3763 20.3319C49.1682 20.3435 48.9369 20.3438 48.7267 20.3488C48.7329 20.125 48.7264 19.8817 48.7247 19.6564L48.0473 19.6514L48.0394 18.9605L45.2568 18.9618C45.2581 19.1496 45.2585 19.3025 45.2467 19.4859L45.2442 19.523L45.2369 19.6137C45.1157 19.6897 44.7307 19.6578 44.5718 19.652C44.616 20.5083 44.5712 21.5677 44.5741 22.4448C44.7954 22.4449 45.0296 22.4414 45.2498 22.4457C45.2541 22.6713 45.2556 22.8969 45.2541 23.1226C46.1144 23.1224 47.1753 23.1517 48.0189 23.1177C48.0205 23.1067 48.022 23.095 48.0234 23.0827C48.0261 23.0582 48.0284 23.0315 48.0301 23.0032C48.0337 22.9466 48.0354 22.8836 48.0357 22.8193C48.0359 22.7872 48.0357 22.7547 48.0352 22.7226C48.0349 22.7065 48.0346 22.6905 48.0342 22.6746C48.0327 22.6112 48.03 22.5502 48.0267 22.4968C48.025 22.4701 48.0232 22.4453 48.0213 22.423C48.0007 22.4223 47.9801 22.4216 47.9595 22.421C47.9583 22.421 47.957 22.4209 47.9558 22.4209C47.9148 22.4197 47.8738 22.4187 47.8328 22.4178C47.7675 22.4163 47.7023 22.4153 47.6369 22.4145C47.083 22.408 46.5261 22.4225 45.974 22.4126L45.974 22.4125C45.9734 22.2027 45.9648 21.9362 45.9804 21.7312C45.8721 21.7298 45.7572 21.7297 45.6426 21.7288C45.613 21.7285 45.5835 21.7283 45.5541 21.7279C45.4687 21.7268 45.3845 21.7251 45.3042 21.7218L45.3042 21.7218C45.2986 21.2727 45.2969 20.8235 45.2986 20.3744L45.9763 20.3667C45.9739 20.1451 45.9655 19.8988 45.9827 19.6798L48.0101 19.6723L48.0102 19.6724L48.0116 20.3657C48.2332 20.368 48.4615 20.3738 48.6822 20.364L48.6823 20.364C48.6922 20.819 48.694 21.2741 48.6867 21.7291L48.0073 21.7353C48.0105 21.9645 48.0151 22.1938 48.0213 22.423C48.0788 22.4307 48.146 22.4348 48.217 22.4365C48.2455 22.4372 48.2745 22.4376 48.3038 22.4376C48.3185 22.4377 48.3332 22.4376 48.3479 22.4375C48.3774 22.4373 48.4069 22.4369 48.4361 22.4364C48.4654 22.4358 48.4943 22.4351 48.5226 22.4344C48.5792 22.4329 48.6331 22.4312 48.6814 22.4301L48.6845 22.5193C48.6906 22.7006 48.6939 22.8605 48.6884 23.0444C48.6878 23.067 48.687 23.09 48.686 23.1134L48.0189 23.1177C48.0107 23.3441 48.0125 23.5664 48.0133 23.7927L47.331 23.7966C47.3351 24.2669 47.3345 24.7372 47.329 25.2075C47.5467 25.2063 47.8228 25.2128 48.0359 25.1992L48.0365 24.5106L48.7229 24.5018C48.725 24.2802 48.7311 24.044 48.7288 23.8237C48.9518 23.8211 49.1884 23.8221 49.4103 23.8153C49.4114 23.3771 49.4237 22.8707 49.4105 22.4381C49.8526 22.4392 50.3113 22.4459 50.7518 22.4405L50.753 23.817L51.4438 23.8253L51.445 24.5063L52.1262 24.5138L52.132 25.2077C52.471 25.2079 52.8574 25.2167 53.1923 25.2025C53.1958 24.9634 53.1999 24.7321 53.1937 24.4928C53.0845 24.4864 52.9446 24.4821 52.8384 24.4715L52.8378 23.796L52.1569 23.7929C52.1566 23.6406 52.1657 23.2456 52.1484 23.1125C53.0679 23.1222 53.987 23.1251 54.9065 23.1212L54.912 22.4505C55.1219 22.4403 55.3851 22.4445 55.599 22.4427C55.6058 21.5126 55.6058 20.5824 55.599 19.6523L54.9284 19.6429L54.9109 18.9508ZM44.6075 19.5567C44.5994 19.5756 44.5929 19.5894 44.5871 19.6036L44.5965 19.5819C44.5998 19.5743 44.6035 19.5661 44.6075 19.5567ZM44.8708 19.5194C44.8333 19.5206 44.7967 19.5227 44.7624 19.5259C44.7899 19.5233 44.8188 19.5215 44.8484 19.5203C44.8558 19.5199 44.8633 19.5196 44.8708 19.5194Z" fill="white"/>
<path d="M39.0245 32.0291H38V10.913H39.0245V32.0291Z" fill="white"/>
<path d="M40.6053 32.0291H39.5807V10.913H40.6053V32.0291Z" fill="white"/>
<defs>
<filter id="filter0_d_291_103802" x="0" y="0" width="341.172" height="47" filterUnits="userSpaceOnUse" color-interpolation-filters="sRGB">
<feFlood flood-opacity="0" result="BackgroundImageFix"/>
<feColorMatrix in="SourceAlpha" type="matrix" values="0 0 0 0 0 0 0 0 0 0 0 0 0 0 0 0 0 0 127 0" result="hardAlpha"/>
<feOffset dy="4"/>
<feComposite in2="hardAlpha" operator="out"/>
<feColorMatrix type="matrix" values="0 0 0 0 0.384314 0 0 0 0 0.341176 0 0 0 0 0.933333 0 0 0 1 0"/>
<feBlend mode="normal" in2="BackgroundImageFix" result="effect1_dropShadow_291_103802"/>
<feBlend mode="normal" in="SourceGraphic" in2="effect1_dropShadow_291_103802" result="shape"/>
</filter>
</defs>
</svg>
