<svg width="297" height="152" viewBox="0 0 297 152" fill="none" xmlns="http://www.w3.org/2000/svg">
<path d="M273.24 141.642V136.586H267.303V131.529H261.362V126.466V121.409H255.423V116.352V111.29V106.233V101.176V96.1144V91.0574V86.0004H249.483V91.0574H243.542V96.1144H237.602H231.661H225.723H219.782H213.842H207.901V91.0574H201.96V86.0004H196.02V80.9378H190.079V86.0004H184.142V91.0574V96.1144H178.2V101.176H172.259V106.233H166.319V111.29H160.379H154.441V116.352H148.501H142.56H136.619H130.679H124.74H118.802H112.861H106.921V111.29H100.98H95.0396V106.233H89.1018V101.176H83.1611V96.1144H77.2203H71.2801V101.176H65.3395V106.233H59.3987H53.458H47.5201H41.58H35.6392H29.6985V101.176H23.7623V96.1144H17.8193V91.0574V86.0004H11.8809V80.9378V75.8808V70.8187V65.7617H5.94071V70.8187V75.8808V80.9378H0V86.0004V91.0574V96.1144V101.176V106.233V111.29H5.94071V116.352V121.409V126.466H11.8809V131.529V136.586H17.8193V141.642H23.7623V146.705H29.6985H35.6392V151.762H41.58H47.5201H53.458H59.3987H65.3395H71.2801H77.2203H83.1611H89.1018H95.0396H100.98H106.921H112.861H118.802H124.74H130.679H136.619H142.56H148.501H154.441H160.379H166.319H172.259H178.2H184.142H190.079H196.02H201.96H207.901H213.842H219.782H225.723H231.661H237.602H243.542H249.483H255.423H261.362H267.303H273.24V146.705H279.181V141.642H273.24Z" fill="#D7CDFF"/>
<path d="M291.063 96.1138V91.0568V85.9998H285.121V80.9372H279.181V75.8802H273.24V70.8181H267.303H261.362H255.423V65.7611V60.7041V55.6421H249.483V50.5851V45.5281V40.466H243.542V35.409H237.602V30.3521H231.661V25.29H225.723V20.233H219.782H213.842H207.901H201.96H196.02H190.079H184.142H178.2V25.29H172.259V20.233V15.1761H166.319V10.1139H160.379H154.441V5.05697H148.501V0H142.56H136.619H130.679H124.74H118.802H112.861V5.05697H106.921H100.98V10.1139H95.0396V15.1761H89.1018V20.233H83.1611V25.29H77.2203V30.3521V35.409V40.466H71.2801H65.3395H59.3987H53.458H47.5201H41.58H35.6392V45.5281H29.6985H23.7623V50.5851H17.8193V55.6421H11.8809V60.7041V65.7611V70.8181V75.8802V80.9372V85.9998H17.8193V91.0568V96.1138H23.7623V101.176H29.6985V106.233H35.6392H41.58H47.5201H53.458H59.3987H65.3395V101.176H71.2801V96.1138H77.2203H83.1611V101.176H89.1018V106.233H95.0396V111.29H100.98H106.921V116.351H112.861H118.802H124.74H130.679H136.619H142.56H148.501H154.441V111.29H160.379H166.319V106.233H172.259V101.176H178.2V96.1138H184.142V91.0568V85.9998H190.079V80.9372H196.02V85.9998H201.96V91.0568H207.901V96.1138H213.842H219.782H225.723H231.661H237.602H243.542V91.0568H249.483V85.9998H255.423V91.0568V96.1138V101.176V106.233V111.29V116.351V121.408H261.362V126.465V131.528H267.303V136.585H273.24V141.642H279.181V146.704H285.121V141.642V136.585H291.063V131.528H297V126.465V121.408V116.351V111.29V106.233V101.176V96.1138H291.063Z" fill="white"/>
</svg>
