<svg width="155" height="80" viewBox="0 0 155 80" fill="none" xmlns="http://www.w3.org/2000/svg">
<path d="M12.4001 73.9214V71.2823H15.4988V68.6431H18.5992V66.001V63.3618H21.6983V60.7226V58.0811V55.4419V52.8028V50.1609V47.5218V44.8826H24.7984V47.5218H27.8988V50.1609H30.9992H34.0996H37.1988H40.2988H43.3992H46.4996V47.5218H49.6V44.8826H52.7001V42.2405H55.8005V44.8826H58.8991V47.5218V50.1609H62V52.8028H65.1004V55.4419H68.2005V58.0811H71.3009H74.3995V60.7226H77.4999H80.6003H83.7006H86.8007H89.8999H92.9991H96.0995H99.1999V58.0811H102.3H105.4V55.4419H108.499V52.8028H111.6V50.1609H114.7H117.8V52.8028H120.9V55.4419H124.001H127.101H130.2H133.3H136.401H139.501V52.8028H142.599V50.1609H145.701V47.5218V44.8826H148.8V42.2405V39.6013V36.9595V34.3203H151.9V36.9595V39.6013V42.2405H155V44.8826V47.5218V50.1609V52.8028V55.4419V58.0811H151.9V60.7226V63.3618V66.001H148.8V68.6431V71.2823H145.701V73.9214H142.599V76.5633H139.501H136.401V79.2024H133.3H130.2H127.101H124.001H120.9H117.8H114.7H111.6H108.499H105.4H102.3H99.1999H96.0995H92.9991H89.8999H86.8007H83.7006H80.6003H77.4999H74.3995H71.3009H68.2005H65.1004H62H58.8991H55.8005H52.7001H49.6H46.4996H43.3992H40.2988H37.1988H34.0996H30.9992H27.8988H24.7984H21.6983H18.5992H15.4988H12.4001V76.5633H9.29976V73.9214H12.4001Z" fill="#D7CDFF"/>
<path d="M3.09874 50.1604V47.5213V44.8821H6.19942V42.24H9.29977V39.6008H12.4002V36.959H15.4988H18.5992H21.6984V34.3198V31.6807V29.0388H24.7984V26.3997V23.7605V21.1186H27.8988V18.4795H30.9992V15.8403H34.0996V13.1985H37.1988V10.5593H40.2989H43.3992H46.4996H49.6H52.7001H55.8005H58.8991H62.0001V13.1985H65.1005V10.5593V7.92017H68.2005V5.27832H71.3009H74.3995V2.63916H77.4999V0H80.6003H83.7007H86.8008H89.9H92.9991H96.0995V2.63916H99.1999H102.3V5.27832H105.4V7.92017H108.499V10.5593H111.6V13.1985H114.7V15.8403V18.4795V21.1186H117.8H120.9H124.001H127.101H130.2H133.3H136.401V23.7605H139.501H142.599V26.3997H145.701V29.0388H148.8V31.6807V34.3198V36.959V39.6008V42.24V44.8821H145.701V47.5213V50.1604H142.599V52.8023H139.501V55.4414H136.401H133.3H130.2H127.101H124.001H120.9V52.8023H117.8V50.1604H114.7H111.6V52.8023H108.499V55.4414H105.4V58.0806H102.3H99.1999V60.7221H96.0995H92.9991H89.9H86.8008H83.7007H80.6003H77.4999H74.3995V58.0806H71.3009H68.2005V55.4414H65.1005V52.8023H62.0001V50.1604H58.8991V47.5213V44.8821H55.8005V42.24H52.7001V44.8821H49.6V47.5213H46.4996V50.1604H43.3992H40.2989H37.1988H34.0996H30.9992H27.8988V47.5213H24.7984V44.8821H21.6984V47.5213V50.1604V52.8023V55.4414V58.0806V60.7221V63.3613H18.5992V66.0005V68.6426H15.4988V71.2818H12.4002V73.9209H9.29977V76.5628H6.19942V73.9209V71.2818H3.09874V68.6426H0.000126742V66.0005V63.3613V60.7221V58.0806V55.4414V52.8023V50.1604H3.09874Z" fill="white"/>
</svg>
