<svg width="254" height="36" viewBox="0 0 254 36" fill="none" xmlns="http://www.w3.org/2000/svg">
<path d="M58.8323 36H54.8712V31.4614H43.905V36H39.9438V27.986H41.2509C41.6751 27.1458 42.019 26.1454 42.2827 24.9851C42.5464 23.8018 42.7585 22.55 42.919 21.2353C43.0795 19.9206 43.1827 18.5773 43.2343 17.2112C43.2859 15.845 43.3145 14.5418 43.3145 13.3014V11.6037H56.7343V27.986H58.8323V36ZM13.5 7.73388H11.3618C9.38405 7.73388 7.89361 8.17974 6.89043 9.07717C5.88725 9.9746 5.38852 11.1578 5.38852 12.6326C5.38852 13.4728 5.48024 14.2102 5.66368 14.8447C5.84712 15.4506 6.11081 16.0165 6.45476 16.5424C6.82164 17.0683 7.2745 17.5713 7.80189 18.04C8.35794 18.4859 8.99998 18.9603 9.73947 19.4633L12.1528 21.081L5.18215 31.4614H0L6.25412 22.1842C5.35413 21.5497 4.55158 20.9095 3.84075 20.2521C3.15286 19.5948 2.57388 18.8974 2.09808 18.1601C1.62229 17.4227 1.25541 16.6339 0.991717 15.7936C0.756686 14.9247 0.636304 13.9644 0.636304 12.9127C0.636304 11.598 0.85987 10.3976 1.307 9.32296C1.7828 8.21975 2.47069 7.28231 3.36496 6.52207C4.26496 5.73325 5.37132 5.12734 6.68979 4.70435C8.03692 4.25849 9.57896 4.03557 11.3216 4.03557H18.2923V31.4728H13.5V7.73388ZM64.8514 23.0873C64.9317 24.8765 65.3502 26.2083 66.1183 27.0772C66.8865 27.946 68.1763 28.3804 69.9992 28.3804C71.1056 28.3804 72.2005 28.1975 73.2839 27.826C74.3903 27.4316 75.3017 26.9971 76.0183 26.5227V30.1124C75.3304 30.5869 74.4591 30.9927 73.4043 31.3357C72.3495 31.6786 71.0826 31.8501 69.6036 31.8501C66.6457 31.8501 64.3642 31.0098 62.7533 29.3236C61.1712 27.6373 60.3801 25.0594 60.3801 21.584C60.3801 20.0864 60.5406 18.7031 60.8559 17.4398C61.1999 16.1766 61.7158 15.0848 62.3979 14.1645C63.0858 13.2156 63.94 12.4954 64.9718 11.9924C66.0266 11.4665 67.2533 11.2036 68.6521 11.2036C69.7871 11.2036 70.8189 11.375 71.7419 11.718C72.6935 12.061 73.496 12.6154 74.1552 13.3757C74.8145 14.1416 75.3189 15.1248 75.6571 16.3366C76.0297 17.5198 76.2132 18.9832 76.2132 20.7209V23.0873H64.8514ZM37.5706 11.6037V31.4614H33.2541V23.053H26.5643V31.4614H22.2477V11.6037H26.5643V19.5776H33.2541V11.6037H37.5706ZM84.0896 21.4697V31.4557H79.7731V11.6037H84.0896V21.1953L91.0603 11.6037H95.5717L88.8017 20.9209L96.4431 31.4614H91.3756L84.0896 21.4754V21.4697ZM105.667 31.8558C102.554 31.8558 100.244 30.9755 98.7361 29.2093C97.2571 27.4487 96.5176 24.8936 96.5176 21.5497C96.5176 20.0521 96.701 18.6688 97.0736 17.4055C97.4692 16.1137 98.0367 15.0219 98.7762 14.1302C99.5443 13.2099 100.479 12.5011 101.585 11.9981C102.691 11.4722 103.987 11.2093 105.466 11.2093C106.601 11.2093 107.576 11.3007 108.395 11.4836C109.215 11.6437 109.857 11.8666 110.333 12.1524V15.9422C109.886 15.6507 109.267 15.3763 108.47 15.1134C107.679 14.8504 106.848 14.719 105.976 14.719C104.365 14.719 103.127 15.2849 102.256 16.4166C101.413 17.5198 100.989 19.1947 100.989 21.4297C100.989 23.6647 101.373 25.248 102.135 26.4827C102.898 27.7174 104.17 28.3404 105.936 28.3404C106.888 28.3404 107.707 28.2204 108.39 27.986C109.1 27.7231 109.748 27.3916 110.327 26.9971V30.6269C109.771 31.0213 109.112 31.3242 108.349 31.5357C107.61 31.7472 106.71 31.8501 105.655 31.8501L105.667 31.8558ZM52.4177 15.0734H47.1152V15.9022C47.1152 16.771 47.0865 17.7428 47.0349 18.8231C46.9833 19.9035 46.8916 20.9952 46.7598 22.0984C46.6279 23.2017 46.4445 24.2706 46.2037 25.2937C45.9916 26.3226 45.7164 27.2144 45.3725 27.9803H52.4177V15.0734ZM68.5718 14.6789C67.3565 14.6789 66.4451 15.1248 65.8374 16.0222C65.2298 16.8911 64.903 18.1658 64.8457 19.852H71.8164V19.3376C71.8164 18.6802 71.7648 18.0743 71.6559 17.5198C71.5527 16.9425 71.3635 16.4395 71.0998 16.0222C70.8648 15.5992 70.5323 15.2734 70.1081 15.0333C69.7126 14.799 69.1966 14.6789 68.5661 14.6789H68.5718ZM141.856 23.7333C140.251 26.4198 137.751 27.6031 135.126 27.6031C129.881 27.6031 125.971 23.9219 125.971 18.4001V18.1258C125.971 17.8685 125.982 17.6285 126 17.3769L148.626 17.4112V0.0285805L135.109 9.75738L121.666 0V35.7771H148.626V27.6031C146.017 27.5916 143.638 26.4084 141.856 23.7333ZM135.126 24.6078C137.768 24.6078 139.385 23.2474 139.603 20.1778H130.001C130.419 22.9387 132.558 24.6078 135.132 24.6078H135.126ZM144.114 20.1721H153.837C153.418 22.933 151.16 24.6021 148.586 24.6021C146.012 24.6021 144.326 23.2417 144.114 20.1721ZM242.598 11.6037V23.9219L249.804 11.6037H254V31.4614H249.448V19.1832L242.243 31.4614H238.047V11.6037H242.598ZM235.272 11.6037V15.3134H227.986V31.4614H223.274V11.6037H235.272ZM207.922 11.6037V23.9219L215.128 11.6037H219.324V31.4614H214.773V19.1832L207.567 31.4614H203.371V11.6037H207.922ZM199.404 11.6037V31.4614H194.692V23.1731H188.398V31.4614H183.686V11.6037H188.398V19.4576H194.692V11.6037H199.404ZM167.405 18.5888V31.4614H162.613V4.02413H167.405V16.6567L175.918 4.02413H180.785L171.917 17.0911L181.696 31.4614H176.113L167.405 18.5888Z" fill="#1A1A1A"/>
</svg>
