<svg width="799" height="98" viewBox="0 0 799 98" fill="none" xmlns="http://www.w3.org/2000/svg">
<g clip-path="url(#clip0_492_187956)">
<path fill-rule="evenodd" clip-rule="evenodd" d="M781.221 98L771.481 89.1973H788.388L798.576 98H781.221ZM762.231 80.8375L722.18 44.6426H744.141L768.599 65.3194H760.752L778.712 80.8375H762.231ZM726.852 35.179H714.659L709.136 30.2348H715.124L704.439 20.8555H716.005L727.099 30.2348H721.111L726.852 35.179ZM737.836 98L705.83 65.3194H697.983L712.786 80.8375H704.546L690.138 65.3194H682.29L711.803 98H694.448L648.978 44.6426H663.619L669.558 51.2199H677.047L683.439 58.1044H691.101L684.533 51.2199H692.022L685.58 44.6426H700.22L755.191 98H737.836ZM691.172 30.2348H655.244L627.428 0H638.079L645.726 7.93382H667.724L672.102 12.0982H677.693L692.038 25.4633H686.155L691.172 30.2348ZM666.511 12.0982H649.74L662.621 25.4633H680.271L666.511 12.0982ZM618.229 7.93382L614.785 3.90327H603.963L607.23 7.93382H601.731L611.92 20.8555H617.702L621.437 25.4633H633.204L629.267 20.8555H640.833L644.971 25.4633H639.087L643.268 30.2348H619.316L615.554 25.4633H609.67L606.137 20.8555H600.355L590.732 7.93382H596.231L593.141 3.90327H598.552L595.474 0H616.777L620.197 3.90327H625.608L629.227 7.93382H618.229ZM568.486 25.4633H597.903L601.353 30.2348H559.437L542.217 0H579.497L582.319 3.90327H555.263L560.289 12.0982H582.652L585.669 16.403H562.929L568.486 25.4633ZM529.497 30.2348L517.384 3.90327H506.562L504.938 0H536.892L539.029 3.90327H528.207L541.473 30.2348H529.497ZM493.57 30.2348L489.024 16.403H483.339L484.705 20.8555H478.923L480.235 25.4633H474.351L475.605 30.2348H463.63L457.007 0H467.658L471.97 16.403H477.654L476.429 12.0982H482.02L480.742 7.93382H486.242L483.635 0H494.287L505.545 30.2348H493.57ZM445.666 30.2348L443.545 16.403H426.49L427.702 30.2348H415.726L414.401 0H425.053L426.113 12.0982H442.885L441.03 0H451.681L457.642 30.2348H445.666ZM403.75 3.90327H387.517L385.786 30.2348H373.81L377.122 0H409.076L409.249 7.93382H403.75V3.90327ZM408.09 98H390.735L392.519 51.2199H377.545L374.164 89.1973H365.709L364.701 98H347.347L350.184 80.8375H358.424L359.536 72.8881H367.576L370.809 44.6426H407.411L408.09 98ZM338.816 3.90327L336.662 12.0982H359.025L358.27 16.403H335.531L333.149 25.4633H362.566L361.835 30.2348H319.919L329.191 0H366.471L365.872 3.90327H338.816ZM311.76 3.90327L301.955 30.2348H289.979L300.938 3.90327H290.116L291.911 0H323.865L322.583 3.90327H311.76ZM282.134 65.3194H274.287L271.111 72.8881H279.15L272.719 89.1973H264.265L260.571 98H208.506L239.045 44.6426H282.966L280.205 51.2199H287.693L282.134 65.3194ZM238.956 72.8881L230.451 89.1973H255.812L263.073 72.8881H238.956ZM250.255 51.2199L242.903 65.3194H266.442L272.718 51.2199H250.255ZM277.263 7.93382H266.264L268.471 3.90327H257.649L255.265 7.93382H249.765L241.84 20.8555H247.623L244.898 25.4633H256.665L259.188 20.8555H270.753L268.431 25.4633H262.548L260.039 30.2348H236.088L239.014 25.4633H233.131L236.058 20.8555H230.275L238.767 7.93382H244.266L246.827 3.90327H252.238L254.631 0H275.934L273.882 3.90327H279.294L277.263 7.93382ZM206.148 30.2348L216.147 16.403H210.462L207.145 20.8555H201.363L197.83 25.4633H191.947L188.184 30.2348H176.208L201.375 0H212.026L199.092 16.403H204.777L208.077 12.0982H213.668L216.769 7.93382H222.268L228.003 0H238.655L218.124 30.2348H206.148ZM182.037 16.403H176.352L172.451 20.8555H149.32L140.281 30.2348H128.304L158.77 0H190.724L187.304 3.90327H192.715L182.037 16.403ZM165.659 3.90327L153.612 16.403H170.667L181.892 3.90327H165.659ZM110.341 30.2348L138.603 3.90327H122.37L92.3766 30.2348H80.401L115.634 0H153.444L122.316 30.2348H110.341ZM85.5294 51.2199H93.017L99.9603 44.6426H114.601L60.988 98H43.6329L78.1326 65.3194H70.2865L53.5098 80.8375H45.2686L62.4403 65.3194H54.5942L17.6002 98H0.245117L63.359 44.6426H77.9993L70.5542 51.2199H78.0418L70.4239 58.1044H78.086L85.5294 51.2199ZM136.562 44.6426L124.062 58.1044H139.388L104.376 98H69.6655L121.921 44.6426H136.562ZM95.1935 89.1973H103.647L125.21 65.3194H117.364L95.1935 89.1973ZM173.162 44.6426L130.408 98H113.053L158.522 44.6426H173.162ZM284.258 80.8375H300.739L298.081 89.1973H323.44L327.382 72.8881H303.267L305.674 65.3194H329.21L332.618 51.2199H310.157L307.967 58.1044H292.643L295.182 51.2199H302.668L304.927 44.6426H341.528L340.106 51.2199H347.593L344.902 65.3194H337.058L335.421 72.8881H343.458L340.347 89.1973H331.895L329.992 98H286.603L289.626 89.1973H281.174L284.258 80.8375ZM467.394 51.2199H429.956L431.211 65.3194H462.598L464.042 72.8881H431.885L433.337 89.1973H475.605L477.509 98H416.766L414.73 44.6426H465.972L467.394 51.2199ZM527.296 51.2199H512.319L529.573 98H512.218L497.344 51.2199H482.369L480.612 44.6426H524.535L527.296 51.2199ZM542.271 51.2199H549.757L546.495 44.6426H568.456L572.221 51.2199H579.706L583.822 58.1044H591.486L616.35 98H598.995L589.172 80.8375H564.448L572.961 98H555.607L537.847 58.1044H545.51L542.271 51.2199ZM560.505 72.8881H584.622L576.161 58.1044H568.497L564.732 51.2199H557.245L560.836 58.1044H553.172L560.505 72.8881ZM641.658 44.6426L647.095 51.2199H609.659L619.522 65.3194H650.906L656.971 72.8881H624.817L636.226 89.1973H678.492L685.769 98H625.026L590.415 44.6426H641.658Z" fill="#1A1A1A"/>
</g>
<defs>
<clipPath id="clip0_492_187956">
<rect width="799" height="98" fill="white"/>
</clipPath>
</defs>
</svg>
