<svg width="41" height="43" viewBox="0 0 41 43" fill="none" xmlns="http://www.w3.org/2000/svg">
<path d="M37.3284 3.11594H41V39.8841H37.3284V43H3.67164V39.8841H0V3.11594H3.67164V0H37.3284V3.11594Z" fill="#8E73F4"/>
<path d="M25 18L25 26L17 26L17 18L25 18Z" fill="white"/>
<path d="M17 26L17 34L9 34L9 26L17 26Z" fill="white"/>
<path d="M17 10L17 18L9 18L9 10L17 10Z" fill="white"/>
<path d="M17 18L17 26L25 26L25 18L17 18Z" fill="white"/>
<path d="M25 26L25 34L33 34L33 26L25 26Z" fill="white"/>
<path d="M25 10L25 18L33 18L33 10L25 10Z" fill="white"/>
</svg>
